<svg t="1736841073819" class="icon" viewBox="0 0 1024 1024" version="1.1" xmlns="http://www.w3.org/2000/svg" p-id="4602" width="256" height="256"><path d="M641.777 257.079h70.15s-15.053-78.489-26.582-90.018c-11.529-11.529-27.272-18.07-43.568-18.07H395.446c-16.296 0-32.039 6.541-43.568 18.07-11.529 11.529-26.582 90.018-26.582 90.018h70.15m-136.957 0v-23.391c0-13.636-8.504-24.611-18.878-24.611h-56.719c-10.374 0-18.878 10.975-18.878 24.611v23.391h94.475z" fill="#353334" p-id="4603"></path><path d="M929.248 245.203H94.804c-16.962 0-30.708 13.747-30.708 30.708v568.38c0 16.962 13.747 30.708 30.708 30.708h834.445c16.962 0 30.708-13.747 30.708-30.708v-568.38c-0.001-16.961-13.858-30.708-30.709-30.708z" fill="#E6E9ED" p-id="4604"></path><path d="M506.058 559.308m-245.563 0a245.563 245.563 0 1 0 491.126 0 245.563 245.563 0 1 0-491.126 0Z" fill="#3A5CAC" p-id="4605"></path><path d="M64.095 245.203h147.001V875H64.095z" fill="#F3797D" p-id="4606"></path><path d="M211.096 341.04m-27.36 0a27.36 27.36 0 1 0 54.72 0 27.36 27.36 0 1 0-54.72 0Z" fill="#3A5CAC" p-id="4607"></path><path d="M211.096 341.04m-14.156 0a14.156 14.156 0 1 0 28.312 0 14.156 14.156 0 1 0-28.312 0Z" fill="#F3797D" p-id="4608"></path><path d="M207.219 334.384m-4.921 0a4.921 4.921 0 1 0 9.842 0 4.921 4.921 0 1 0-9.842 0Z" fill="#E6E9ED" p-id="4609"></path><path d="M506.058 559.308m-129.994 0a129.994 129.994 0 1 0 259.988 0 129.994 129.994 0 1 0-259.988 0Z" fill="#F3797D" p-id="4610"></path><path d="M502.338 559.308m-79.815 0a79.815 79.815 0 1 0 159.63 0 79.815 79.815 0 1 0-159.63 0Z" fill="#CECECE" p-id="4611"></path><path d="M511.653 559.308m-79.815 0a79.815 79.815 0 1 0 159.63 0 79.815 79.815 0 1 0-159.63 0Z" fill="#E6E9ED" p-id="4612"></path><path d="M813.547 245.203h147.001V875H813.547z" fill="#F3797D" p-id="4613"></path></svg>