<svg t="1734076402105" class="icon" viewBox="0 0 1024 1024" version="1.1" xmlns="http://www.w3.org/2000/svg" p-id="5003" width="256" height="256"><path d="M354.133333 874.666667c-10.666667 0-21.333333-4.266667-27.733333-14.933334L132.266667 563.2c-10.666667-14.933333-6.4-34.133333 8.533333-44.8s34.133333-6.4 44.8 8.533333l194.133333 294.4c10.666667 14.933333 6.4 34.133333-8.533333 44.8-4.266667 6.4-10.666667 8.533333-17.066667 8.533334z" fill="#FFBB12" p-id="5004"></path><path d="M256 945.066667c-8.533333 0-17.066667 0-25.6-2.133334-34.133333-6.4-61.866667-25.6-81.066667-53.333333l-113.066666-170.666667c-38.4-57.6-21.333333-136.533333 36.266666-174.933333l450.133334-296.533333c27.733333-17.066667 57.6-27.733333 89.6-29.866667h215.466666c32-2.133333 64 12.8 83.2 40.533333 19.2 27.733333 19.2 61.866667 4.266667 91.733334L817.066667 576c-14.933333 25.6-34.133333 49.066667-59.733334 64L326.4 925.866667c-21.333333 12.8-44.8 19.2-70.4 19.2zM108.8 597.333333c-29.866667 19.2-36.266667 57.6-17.066667 87.466667l113.066667 170.666667c8.533333 14.933333 23.466667 23.466667 40.533333 27.733333 17.066667 4.266667 34.133333 0 46.933334-8.533333L725.333333 590.933333c14.933333-10.666667 27.733333-23.466667 38.4-40.533333L859.733333 320c6.4-12.8 2.133333-23.466667-2.133333-27.733333s-10.666667-12.8-25.6-12.8H614.4c-19.2 0-38.4 8.533333-55.466667 19.2L108.8 597.333333z" fill="#543E3E" p-id="5005"></path><path d="M622.933333 524.8c-4.266667 0-10.666667 0-14.933333-2.133333-19.2-4.266667-36.266667-14.933333-46.933333-32-10.666667-17.066667-14.933333-36.266667-10.666667-55.466667 4.266667-19.2 14.933333-36.266667 32-46.933333 17.066667-10.666667 36.266667-14.933333 55.466667-10.666667 19.2 4.266667 36.266667 14.933333 46.933333 32 10.666667 17.066667 14.933333 36.266667 10.666667 55.466667-4.266667 19.2-14.933333 36.266667-32 46.933333-12.8 8.533333-27.733333 12.8-40.533334 12.8z m0-102.4c-6.4 0-10.666667 2.133333-17.066666 4.266667-6.4 4.266667-10.666667 10.666667-12.8 19.2-2.133333 8.533333 0 14.933333 4.266666 23.466666s10.666667 10.666667 19.2 12.8c8.533333 2.133333 14.933333 0 23.466667-4.266666 6.4-4.266667 10.666667-10.666667 12.8-19.2s0-14.933333-4.266667-23.466667-10.666667-10.666667-19.2-12.8h-6.4z" fill="#FFBB12" p-id="5006"></path></svg>