<svg t="1734076671992" class="icon" viewBox="0 0 1024 1024" version="1.1" xmlns="http://www.w3.org/2000/svg" p-id="9744" width="200" height="200"><path d="M512 512m-384 0a384 384 0 1 0 768 0 384 384 0 1 0-768 0Z" fill="#EF9943" p-id="9745"></path><path d="M332.8 851.2c32 9.6 64 12.8 99.2 12.8C652.8 864 832 684.8 832 464c0-105.6-38.4-198.4-105.6-268.8C828.8 262.4 896 380.8 896 512c0 211.2-172.8 384-384 384-64 0-124.8-16-179.2-44.8z" fill="#D86C2D" p-id="9746"></path><path d="M512 1024C230.4 1024 0 793.6 0 512c0-67.2 12.8-134.4 38.4-195.2 6.4-16 25.6-25.6 41.6-19.2 16 6.4 25.6 25.6 16 41.6-19.2 54.4-32 112-32 172.8 0 246.4 201.6 448 448 448s448-201.6 448-448S758.4 64 512 64c-118.4 0-233.6 48-316.8 131.2-12.8 12.8-32 12.8-44.8 0-12.8-12.8-12.8-32 0-44.8 96-96 224-150.4 361.6-150.4 281.6 0 512 230.4 512 512s-230.4 512-512 512z" fill="#3C3C3C" p-id="9747"></path><path d="M284.8 284.8c12.8-12.8 32-12.8 44.8 0 12.8 12.8 12.8 32 0 44.8-22.4 25.6-41.6 54.4-54.4 83.2-12.8 32-19.2 64-19.2 99.2 0 19.2-12.8 32-32 32s-32-12.8-32-32c0-41.6 9.6-83.2 25.6-121.6C233.6 352 256 316.8 284.8 284.8z" fill="#FBCB7C" p-id="9748"></path><path d="M512 192c19.2 0 32 12.8 32 32v288c0 19.2-12.8 32-32 32s-32-12.8-32-32V224c0-19.2 12.8-32 32-32z" fill="#3C3C3C" p-id="9749"></path><path d="M547.2 502.4l156.8 156.8c12.8 12.8 12.8 32 0 44.8-12.8 12.8-32 12.8-44.8 0l-156.8-156.8c-12.8-12.8-12.8-32 0-44.8 12.8-12.8 32-12.8 44.8 0z" fill="#3C3C3C" p-id="9750"></path><path d="M512 512m-96 0a96 96 0 1 0 192 0 96 96 0 1 0-192 0Z" fill="#E5E7EB" p-id="9751"></path><path d="M512 640c-70.4 0-128-57.6-128-128s57.6-128 128-128 128 57.6 128 128-57.6 128-128 128z m0-192c-35.2 0-64 28.8-64 64s28.8 64 64 64 64-28.8 64-64-28.8-64-64-64z" fill="#3C3C3C" p-id="9752"></path></svg>